<?xml version="1.0" encoding="utf-8"?>
<!-- Generator: Adobe Illustrator 25.0.0, SVG Export Plug-In . SVG Version: 6.00 Build 0)  -->
<svg version="1.1" id="Layer_1" xmlns="http://www.w3.org/2000/svg" xmlns:xlink="http://www.w3.org/1999/xlink" x="0px" y="0px"
	 viewBox="0 0 205.47 103.89" style="enable-background:new 0 0 205.47 103.89;" xml:space="preserve">
<style type="text/css">
	.Arched_x0020_Green{fill:url(#SVGID_1_);stroke:#FFFFFF;stroke-width:0.25;stroke-miterlimit:1;}
	.st0{fill:#fff;}
</style>
<linearGradient id="SVGID_1_" gradientUnits="userSpaceOnUse" x1="0" y1="360" x2="0.7071" y2="359.2929">
	<stop  offset="0" style="stop-color:#20AC4B"/>
	<stop  offset="0.9831" style="stop-color:#19361A"/>
</linearGradient>
<g>
	<g>
		<polygon class="st0" points="18.54,39.45 10.78,53.85 8.04,53.85 0.28,39.45 2.95,39.45 9.41,51.45 15.87,39.45 		"/>
		<polygon class="st0" points="26.87,53.79 24.26,53.79 31.88,39.39 34.88,39.39 42.5,53.79 39.89,53.79 33.4,41.44 		"/>
		<path class="st0" d="M66.39,42.73l-2.17,0.78c-1.46-1.55-3.5-2.33-6.13-2.33c-1.99,0-3.61,0.51-4.86,1.53
			c-1.25,1.02-1.88,2.32-1.88,3.9c0,1.63,0.62,2.95,1.86,3.95c1.24,1,2.91,1.5,5.02,1.5c2.55,0,4.55-0.79,6.01-2.37l2.05,1.13
			c-1.03,1.21-2.2,2.08-3.51,2.62c-1.31,0.54-2.87,0.81-4.68,0.81c-2.55,0-4.66-0.64-6.34-1.91c-1.92-1.46-2.88-3.37-2.88-5.73
			c0-2.32,0.97-4.22,2.92-5.69c1.7-1.29,3.8-1.93,6.31-1.93C61.7,39,64.46,40.24,66.39,42.73z"/>
		<polygon class="st0" points="76.75,53.85 74.14,53.85 81.75,39.45 84.76,39.45 92.37,53.85 89.76,53.85 83.28,41.51 		"/>
		<polygon class="st0" points="113.24,41.6 106.36,41.6 106.36,53.85 103.97,53.85 103.97,41.6 97.09,41.6 97.09,39.45 
			113.24,39.45 		"/>
		<rect x="122.19" y="39.45" class="st0" width="2.39" height="14.4"/>
		<g>
			<path class="st0" d="M150.16,40.94c-1.7-1.3-3.8-1.95-6.31-1.95c-2.49,0-4.6,0.65-6.32,1.95c-1.96,1.49-2.94,3.38-2.94,5.69
				c0,2.35,0.97,4.25,2.9,5.71c1.7,1.29,3.82,1.93,6.36,1.93c2.52,0,4.63-0.64,6.33-1.91c1.94-1.46,2.9-3.37,2.9-5.73
				C153.08,44.33,152.11,42.43,150.16,40.94z M148.76,50.57c-1.23,1.01-2.86,1.51-4.9,1.51c-2.05,0-3.7-0.5-4.93-1.5
				c-1.23-1-1.85-2.32-1.85-3.95c0-1.58,0.63-2.88,1.89-3.91c1.26-1.03,2.89-1.54,4.89-1.54c1.83,0,3.36,0.45,4.6,1.35
				c1.43,1.05,2.15,2.41,2.15,4.1C150.6,48.25,149.98,49.56,148.76,50.57z"/>
		</g>
		<polygon class="st0" points="179.4,53.85 176.43,53.85 165.44,42.04 165.44,53.85 163.05,53.85 163.05,39.45 166.02,39.45 
			177.01,51.27 177.01,39.45 179.4,39.45 		"/>
		<path class="st0" d="M203.03,42.83c-2.13-1.09-4.31-1.63-6.52-1.63c-1.47,0-2.6,0.17-3.38,0.52c-0.78,0.34-1.17,0.82-1.17,1.43
			c0,0.64,0.42,1.1,1.25,1.39c0.6,0.21,1.57,0.36,2.92,0.44c1.99,0.13,3.3,0.24,3.94,0.32c1.8,0.24,3.14,0.68,4,1.33
			c0.86,0.65,1.29,1.57,1.29,2.76c0,1.52-0.68,2.71-2.03,3.54c-1.35,0.84-3.29,1.25-5.83,1.25c-3.67,0-6.53-0.81-8.57-2.43
			l1.31-1.73c2.25,1.38,4.68,2.07,7.28,2.07c1.68,0,2.99-0.23,3.92-0.7c0.89-0.45,1.33-1.07,1.33-1.85c0-0.91-0.58-1.53-1.75-1.83
			c-0.61-0.16-2.25-0.33-4.93-0.5c-2.37-0.16-4.04-0.48-4.99-0.95c-1.11-0.56-1.67-1.49-1.67-2.8c0-1.35,0.63-2.42,1.9-3.2
			c1.27-0.78,3.05-1.17,5.36-1.17c3.1,0,5.7,0.71,7.8,2.13L203.03,42.83z"/>
	</g>
	<path class="st0" d="M103.04,30.34c0,0,96.68-0.09,102.83-0.75c-5.94-0.75-102.83-0.75-102.83-0.75S6.35,28.93,0.2,29.59
		C6.14,30.34,103.04,30.34,103.04,30.34z"/>
	<path class="st0" d="M103.04,64.4c0,0,96.68-0.09,102.83-0.75c-5.94-0.75-102.83-0.75-102.83-0.75S6.35,63,0.2,63.65
		C6.14,64.4,103.04,64.4,103.04,64.4z"/>
	<g>
		<path class="st0" d="M44.53,5.54l-7.39,13.97h-2.95l8.62-16.29h3.4l8.62,16.29h-2.95L44.53,5.54z"/>
		<path class="st0" d="M124.22,19.51h-2.7V3.22h2.7V19.51z"/>
		<g>
			<path class="st0" d="M150.35,5c-1.92-1.47-4.3-2.21-7.13-2.21c-2.82,0-5.21,0.74-7.16,2.21c-2.22,1.68-3.33,3.83-3.33,6.43
				c0,2.66,1.1,4.81,3.29,6.46c1.92,1.46,4.32,2.18,7.2,2.18c2.85,0,5.24-0.72,7.16-2.16c2.19-1.65,3.29-3.81,3.29-6.48
				C153.66,8.83,152.56,6.68,150.35,5z M148.77,15.89c-1.39,1.14-3.24,1.71-5.55,1.71c-2.33,0-4.18-0.57-5.58-1.7
				c-1.4-1.13-2.09-2.62-2.09-4.47c0-1.78,0.71-3.26,2.14-4.42c1.42-1.16,3.27-1.74,5.54-1.74c2.07,0,3.8,0.51,5.2,1.53
				c1.62,1.19,2.43,2.73,2.43,4.63C150.85,13.27,150.15,14.75,148.77,15.89z"/>
		</g>
		<path class="st0" d="M178.41,5.75h-7.79v13.86h-2.7V5.75h-7.78V3.32h18.27V5.75z"/>
		<path class="st0" d="M204.51,5.75h-7.79v13.86h-2.7V5.75h-7.79V3.32h18.27V5.75z"/>
		<path class="st0" d="M0.28,19.61l5.33-16.3h3.5l4.06,13.61l4.06-13.61h3.45l5.38,16.3h-3.01l-4.1-13.65l-4.08,13.65h-3.42
			L7.38,5.94l-4.1,13.67H0.28z"/>
		<g>
			<path class="st0" d="M76.83,13.17c1.29-0.21,2.3-0.71,3.04-1.49c0.79-0.84,1.19-1.95,1.19-3.33c0-1.58-0.49-2.82-1.46-3.75
				c-0.98-0.92-2.32-1.38-4.03-1.38H62.73v16.29h2.7V5.65h9.5c2.25,0,3.38,0.9,3.38,2.7c0,1.68-1.04,2.52-3.13,2.52h-1.54v2.43h0.02
				l4.41,6.21h3.14L76.83,13.17z"/>
		</g>
		<g>
			<path class="st0" d="M105.23,13.17c1.29-0.21,2.3-0.71,3.04-1.49c0.79-0.84,1.19-1.95,1.19-3.33c0-1.58-0.49-2.82-1.46-3.75
				c-0.98-0.92-2.32-1.38-4.03-1.38H91.13v16.29h2.7V5.65h9.5c2.25,0,3.37,0.9,3.37,2.7c0,1.68-1.04,2.52-3.13,2.52h-1.53v2.43h0.01
				l4.41,6.21h3.14L105.23,13.17z"/>
		</g>
	</g>
	<g>
		<polygon class="st0" points="19.04,85.82 15.23,73.07 12.04,73.07 8.24,85.8 4.41,73.07 1.6,73.07 6.62,88.27 9.84,88.27 
			13.64,75.58 17.43,88.27 20.69,88.27 25.67,73.07 22.86,73.07 		"/>
		<g>
			<path class="st0" d="M46.77,74.64c-1.79-1.37-4.01-2.06-6.66-2.06c-2.63,0-4.86,0.69-6.68,2.06c-2.07,1.57-3.11,3.57-3.11,6.01
				c0,2.48,1.02,4.49,3.07,6.03c1.79,1.36,4.03,2.04,6.72,2.04c2.66,0,4.89-0.67,6.68-2.02c2.04-1.54,3.07-3.56,3.07-6.05
				C49.86,78.21,48.83,76.21,46.77,74.64z M45.29,84.81c-1.3,1.06-3.02,1.6-5.18,1.6c-2.17,0-3.91-0.53-5.21-1.58
				c-1.3-1.06-1.95-2.45-1.95-4.17c0-1.67,0.66-3.04,1.99-4.13c1.33-1.08,3.05-1.63,5.17-1.63c1.93,0,3.55,0.48,4.85,1.43
				c1.51,1.11,2.27,2.55,2.27,4.33C47.23,82.36,46.59,83.75,45.29,84.81z"/>
		</g>
		<path class="st0" d="M72.89,80.97c0.74-0.78,1.11-1.82,1.11-3.11c0-1.47-0.46-2.64-1.36-3.5c-0.91-0.86-2.16-1.29-3.76-1.29H56.89
			v15.2h2.52V75.34h8.86c2.1,0,3.15,0.84,3.15,2.52c0,1.57-0.97,2.35-2.92,2.35h-1.43v2.27h0.01l4.11,5.8h2.93l-4.07-5.92
			C71.26,82.16,72.2,81.69,72.89,80.97z"/>
		<polygon class="st0" points="83.51,73.07 80.99,73.07 80.99,88.27 95.25,88.27 95.25,86.01 83.51,86.01 		"/>
		<g>
			<path class="st0" d="M117.11,75.18c-1.55-1.41-3.64-2.11-6.29-2.11h-9.62v15.2h10.1c2.25,0,4.14-0.67,5.67-2.02
				c1.64-1.44,2.46-3.25,2.46-5.42C119.43,78.47,118.66,76.59,117.11,75.18z M115.24,84.54c-0.97,0.98-2.21,1.47-3.73,1.47h-7.79
				V75.34h7.31c1.69,0,3.06,0.5,4.11,1.5c1.04,1,1.56,2.31,1.56,3.94C116.7,82.31,116.22,83.56,115.24,84.54z"/>
		</g>
		<polygon class="st0" points="141.46,85.82 137.65,73.07 134.46,73.07 130.65,85.8 126.83,73.07 124.02,73.07 129.04,88.27 
			132.26,88.27 136.05,75.58 139.85,88.27 143.11,88.27 148.09,73.07 145.28,73.07 		"/>
		<rect x="154.04" y="73.07" class="st0" width="2.52" height="15.2"/>
		<g>
			<path class="st0" d="M180.36,75.18c-1.55-1.41-3.64-2.11-6.29-2.11h-9.62v15.2h10.1c2.25,0,4.14-0.67,5.67-2.02
				c1.64-1.44,2.46-3.25,2.46-5.42C182.68,78.47,181.91,76.59,180.36,75.18z M178.49,84.54c-0.97,0.98-2.22,1.47-3.73,1.47h-7.79
				V75.34h7.31c1.69,0,3.06,0.5,4.11,1.5c1.04,1,1.56,2.31,1.56,3.94C179.95,82.31,179.47,83.56,178.49,84.54z"/>
		</g>
		<polygon class="st0" points="192.2,86.01 192.2,81.51 201.11,81.51 201.11,79.24 192.2,79.24 192.2,75.34 205.01,75.34 
			205.01,73.07 189.68,73.07 189.68,88.27 205.6,88.27 205.6,86.01 		"/>
	</g>
	<g>
		<path class="st0" d="M195.95,98.03c-0.3-0.22-0.68-0.33-1.15-0.33c-0.19,0-0.38,0.02-0.56,0.06c-0.18,0.04-0.35,0.1-0.49,0.19
			c-0.14,0.09-0.26,0.21-0.34,0.36c-0.08,0.15-0.13,0.33-0.13,0.55c0,0.21,0.06,0.38,0.18,0.51c0.12,0.13,0.29,0.24,0.49,0.32
			c0.21,0.08,0.44,0.15,0.7,0.2c0.26,0.05,0.52,0.11,0.79,0.18c0.27,0.06,0.53,0.14,0.79,0.22c0.26,0.08,0.49,0.2,0.7,0.35
			c0.21,0.15,0.37,0.33,0.49,0.55c0.12,0.22,0.19,0.5,0.19,0.83c0,0.36-0.08,0.67-0.24,0.93c-0.16,0.26-0.37,0.46-0.62,0.63
			c-0.25,0.16-0.54,0.28-0.85,0.35c-0.31,0.07-0.62,0.11-0.93,0.11c-0.38,0-0.74-0.05-1.08-0.14c-0.34-0.09-0.64-0.24-0.89-0.43
			c-0.26-0.19-0.46-0.44-0.61-0.74c-0.15-0.3-0.22-0.66-0.22-1.07h0.85c0,0.28,0.06,0.53,0.17,0.74c0.11,0.21,0.26,0.38,0.44,0.51
			c0.18,0.13,0.39,0.23,0.63,0.29c0.24,0.06,0.49,0.1,0.74,0.1c0.2,0,0.41-0.02,0.61-0.06c0.21-0.04,0.39-0.1,0.56-0.19
			c0.16-0.09,0.3-0.22,0.4-0.38c0.1-0.16,0.15-0.36,0.15-0.61c0-0.23-0.06-0.42-0.18-0.57c-0.12-0.15-0.29-0.26-0.49-0.36
			c-0.21-0.09-0.44-0.17-0.7-0.22c-0.26-0.06-0.52-0.12-0.79-0.18c-0.27-0.06-0.53-0.13-0.79-0.21c-0.26-0.08-0.49-0.18-0.7-0.31
			c-0.21-0.13-0.37-0.3-0.49-0.5c-0.12-0.21-0.19-0.46-0.19-0.77c0-0.34,0.07-0.64,0.21-0.89c0.14-0.25,0.32-0.46,0.56-0.62
			c0.23-0.16,0.49-0.28,0.79-0.36c0.29-0.08,0.6-0.12,0.91-0.12c0.35,0,0.67,0.04,0.97,0.12c0.3,0.08,0.56,0.21,0.78,0.39
			c0.22,0.18,0.4,0.4,0.53,0.67c0.13,0.27,0.2,0.59,0.21,0.96h-0.85C196.43,98.61,196.25,98.25,195.95,98.03z"/>
		<path class="st0" d="M199.96,97.11l2.14,5.7l2.15-5.7h1.23v6.78h-0.85v-5.64h-0.02l-2.12,5.64h-0.77l-2.12-5.64h-0.02v5.64h-0.85
			v-6.78H199.96z"/>
	</g>
</g>
</svg>
