<svg xmlns="http://www.w3.org/2000/svg" width="85" height="28.034" viewBox="0 0 85 28.034"><defs><style>.a{fill:#0096d6;}</style></defs><g transform="translate(8 8.004)"><g transform="translate(-8 -8.004)"><g transform="translate(0)"><path class="a" d="M42.68,30.019s39.935-.071,42.476-.589C82.7,28.84,42.68,28.84,42.68,28.84S2.74,28.911.2,29.429C2.654,30.019,42.68,30.019,42.68,30.019Z" transform="translate(-0.155 -28.84)"/><path class="a" d="M42.68,64.079s39.935-.071,42.476-.589C82.7,62.9,42.68,62.9,42.68,62.9S2.74,62.979.2,63.489C2.654,64.079,42.68,64.079,42.68,64.079Z" transform="translate(-0.2 -36.044)"/><g transform="translate(8.04 7.959)"><path class="a" d="M.28,16.249,4.421,3.31H7.14l3.154,10.8,3.154-10.8h2.68l4.18,12.939H17.97L14.784,5.414l-3.17,10.835H8.958L5.8,5.4,2.611,16.249Z" transform="translate(-0.28 -3.31)"/><path class="a" d="M16.337,39.45,9.513,52.389H7.1L.28,39.45H2.628L8.309,50.232,13.989,39.45Z" transform="translate(26.573 -39.449)"/><path class="a" d="M16.129,83.923,12.955,73.07H10.3L7.132,83.906,3.941,73.07H1.6L5.782,86.009H8.464l3.166-10.8,3.157,10.8H17.5L21.652,73.07H19.311Z" transform="translate(47.133 -73.07)"/></g></g></g></g></svg>